<svg xmlns="http://www.w3.org/2000/svg" xmlns:xlink="http://www.w3.org/1999/xlink" width="120" height="120" viewBox="0 0 120 120">
  <defs>
    <clipPath id="clip-path">
      <circle id="Ellipse_106" data-name="Ellipse 106" cx="60" cy="60" r="60" transform="translate(900 279)" fill="#fff" stroke="#707070" stroke-width="1"/>
    </clipPath>
  </defs>
  <g id="Mask_Group_10199" data-name="Mask Group 10199" transform="translate(-900 -279)" clip-path="url(#clip-path)">
    <g id="noun-check-4162846" transform="translate(919.019 311.343)">
      <path id="Path_4934" data-name="Path 4934" d="M61.425,92.616a5.994,5.994,0,0,1-3.531-1.15L46.4,83.257a2.094,2.094,0,0,0-2.34,0l-11.453,8.21a6.076,6.076,0,0,1-5.87.657,5.994,5.994,0,0,1-3.613-4.6l-2.5-13.958a1.929,1.929,0,0,0-1.478-1.478L5.184,69.627a6.076,6.076,0,0,1-4.105-9.483l8.21-11.536a2.094,2.094,0,0,0,0-2.34L1.079,34.815a6.076,6.076,0,0,1,4.105-9.524l13.958-2.463A1.929,1.929,0,0,0,20.62,21.35L23.083,7.393a5.994,5.994,0,0,1,3.613-4.6,6.076,6.076,0,0,1,5.87.657L44.1,11.662a1.97,1.97,0,0,0,2.3,0l11.495-8.21a6.076,6.076,0,0,1,9.524,4.105l.78,4.68a2.079,2.079,0,1,1-4.105.657l-.739-4.844a1.97,1.97,0,0,0-3.079-1.273l-11.495,8.21a6.076,6.076,0,0,1-7.061,0L30.226,6.777A1.929,1.929,0,0,0,28.3,6.407a1.888,1.888,0,0,0-1.149,1.478L24.725,22.048a6.035,6.035,0,0,1-4.885,4.885l-14,2.422a1.97,1.97,0,0,0-1.273,3.079l8.21,11.248a6.363,6.363,0,0,1,0,7.307L4.568,62.525a1.935,1.935,0,0,0,1.273,3.038l14,2.422a6.035,6.035,0,0,1,4.885,4.885l2.34,14a1.888,1.888,0,0,0,1.149,1.478,1.97,1.97,0,0,0,1.929-.205l11.495-8.21a6.24,6.24,0,0,1,7.061,0l11.536,8.21a1.97,1.97,0,0,0,3.079-1.273l2.463-14a6.035,6.035,0,0,1,4.885-4.885l14-2.34A1.929,1.929,0,0,0,86.138,64.5a1.97,1.97,0,0,0-.205-1.929l-8.21-11.495a2.053,2.053,0,0,1,3.325-2.381l8.21,11.495a6.04,6.04,0,0,1-3.941,9.483L71.36,72.09a1.929,1.929,0,0,0-1.6,1.6l-2.34,14a6.035,6.035,0,0,1-3.654,4.6A6.117,6.117,0,0,1,61.425,92.616Z" transform="translate(-4.448 -19.405)" fill="#00e38b"/>
      <path id="Path_4935" data-name="Path 4935" d="M29.159,52.9a2.048,2.048,0,0,1-1.433-.614L9.3,33.857A2.056,2.056,0,0,1,12.2,30.95L29.159,47.781,72.772,4.372A2.056,2.056,0,0,1,75.68,7.28L30.633,52.326A2.048,2.048,0,0,1,29.159,52.9Z" transform="translate(7.77 -8.614)" fill="#00e38b"/>
    </g>
  </g>
</svg>
