<svg xmlns="http://www.w3.org/2000/svg" xmlns:xlink="http://www.w3.org/1999/xlink" width="19" height="19" viewBox="0 0 19 19">
  <defs>
    <clipPath id="clip-path">
      <rect id="Rectangle_3300" data-name="Rectangle 3300" width="19" height="19" transform="translate(1619 457)" fill="#fff" stroke="#707070" stroke-width="1"/>
    </clipPath>
  </defs>
  <g id="Mask_Group_10203" data-name="Mask Group 10203" transform="translate(-1619 -457)" clip-path="url(#clip-path)">
    <g id="noun-minus-113947" transform="translate(1619.181 457.181)">
      <path id="Path_4940" data-name="Path 4940" d="M15.363,3.35A8.482,8.482,0,0,0,3.35,3.275,8.5,8.5,0,0,0,9.319,17.819,8.5,8.5,0,0,0,15.363,3.35Zm-1.53,6.536H4.8a.567.567,0,0,1,0-1.133h9.029a.568.568,0,0,1,.567.567A.557.557,0,0,1,13.833,9.886Z" transform="translate(9.319 -3.86) rotate(45)" fill="#ee0200"/>
    </g>
  </g>
</svg>
