<svg xmlns="http://www.w3.org/2000/svg" xmlns:xlink="http://www.w3.org/1999/xlink" width="19" height="19" viewBox="0 0 19 19">
  <defs>
    <clipPath id="clip-path">
      <rect id="Rectangle_3299" data-name="Rectangle 3299" width="19" height="19" transform="translate(1526 457)" fill="#fff" stroke="#707070" stroke-width="1"/>
    </clipPath>
  </defs>
  <g id="Mask_Group_10202" data-name="Mask Group 10202" transform="translate(-1526 -457)" clip-path="url(#clip-path)">
    <g id="noun-close-113926" transform="translate(1526.181 457.181)">
      <path id="Path_4939" data-name="Path 4939" d="M9.319.819a8.525,8.525,0,0,0-8.5,8.443,8.376,8.376,0,0,0,2.456,6.026,8.406,8.406,0,0,0,5.988,2.531h.057a8.5,8.5,0,1,0,0-17ZM12.908,12.1a.57.57,0,0,1,0,.812.576.576,0,0,1-.4.17.544.544,0,0,1-.4-.17l-2.8-2.777L6.542,12.908a.576.576,0,0,1-.4.17.62.62,0,0,1-.416-.17.57.57,0,0,1,0-.812L8.507,9.319,5.73,6.523a.574.574,0,0,1,.812-.812l2.777,2.8L12.1,5.73a.574.574,0,0,1,.812.812L10.131,9.319Z" transform="translate(0 0)" fill="#354767"/>
    </g>
  </g>
</svg>
